<?xml version="1.0" standalone="no"?><!DOCTYPE svg PUBLIC "-//W3C//DTD SVG 1.1//EN" "http://www.w3.org/Graphics/SVG/1.1/DTD/svg11.dtd"><svg t="1634615791830" class="icon" viewBox="0 0 1024 1024" version="1.1" xmlns="http://www.w3.org/2000/svg" p-id="18171" xmlns:xlink="http://www.w3.org/1999/xlink" width="200" height="200"><defs><style type="text/css"></style></defs><path d="M990 0H34C15.22 0 0 15.22 0 34s15.22 34 34 34h27v658c0 18.78 15.22 34 34 34 0.34 0 0.67-0.02 1-0.03 0.33 0.01 0.66 0.03 1 0.03h189.05L163.08 972.99c-9.39 16.26-3.82 37.06 12.44 46.44 16.26 9.39 37.06 3.82 46.44-12.44l138.96-240.68c1.18-2.04 2.12-4.16 2.84-6.31h296.48c0.72 2.15 1.66 4.27 2.84 6.31l138.96 240.68c9.39 16.26 30.18 21.83 46.44 12.44 16.26-9.39 21.83-30.18 12.44-46.44L737.95 760H927c18.78 0 34-15.22 34-34V68h29c18.78 0 34-15.22 34-34s-15.22-34-34-34z m-97 692H129V68h764v624z" fill="#333333" p-id="18172"></path><path d="M319.4 626h0.2c18.72 0 33.9-15.18 33.9-33.9V298.08c0-18.72-15.18-33.9-33.9-33.9h-0.2c-18.72 0-33.9 15.18-33.9 33.9V592.1c0 18.72 15.18 33.9 33.9 33.9zM511.9 626h0.2c18.72 0 33.9-15.18 33.9-33.9V149.9c0-18.72-15.18-33.9-33.9-33.9h-0.2c-18.72 0-33.9 15.18-33.9 33.9v442.2c0 18.72 15.18 33.9 33.9 33.9zM704.4 626h0.2c18.72 0 33.9-15.18 33.9-33.9V371.59c0-18.72-15.18-33.9-33.9-33.9h-0.2c-18.72 0-33.9 15.18-33.9 33.9V592.1c0 18.72 15.18 33.9 33.9 33.9z" fill="#333333" p-id="18173"></path></svg>